<svg xmlns="http://www.w3.org/2000/svg" viewBox="0 0 56 20" width="1em" height="1em">
    <path
        d="M45.36 20.004a6.492 6.492 0 0 1-4.567-1.926 5.795 5.795 0 0 1-1.533-2.907 10.812 10.812 0 0 1-.314-2.242c-.07-.84-.14-1.682-.21-2.382v-.105c-.069-.63-.104-1.261-.208-1.892-.07-.595-.174-1.225-.244-1.821l-.105-.665a1.5 1.5 0 0 0-.07-.385 8.097 8.097 0 0 1-.104-.911A1.968 1.968 0 0 1 39.33 2.77c.313-.11.65-.134.976-.07a1.983 1.983 0 0 1 3.172-1.47 1.983 1.983 0 0 1 .767 1.33c.174.911.314 1.856.488 2.767l.035.28.52-2.662c.07-.42.175-.84.245-1.26a1.97 1.97 0 0 1 3.906.07v.07c.315-.047.636-.023.94.07a2.076 2.076 0 0 1 1.291 2.417l-.209.981a133.415 133.415 0 0 0-.697 3.608 2.09 2.09 0 0 1 1.29-.77 1.99 1.99 0 0 1 1.464.385 2.036 2.036 0 0 1 .733 2.102 13.018 13.018 0 0 1-.872 2.136c-.07.175-.174.35-.244.525a18.815 18.815 0 0 1-2.577 4.27 6.772 6.772 0 0 1-3.382 2.242 8.236 8.236 0 0 1-1.815.212ZM39.957 3.857a.59.59 0 0 0-.244.035.752.752 0 0 0-.558.806c.018.259.053.516.105.77.035.14.035.28.07.42l.104.666c.07.595.174 1.226.244 1.856.07.63.14 1.296.21 1.927v.105c.069.7.139 1.541.208 2.418.044.685.15 1.365.314 2.032a4.686 4.686 0 0 0 1.221 2.345 5.404 5.404 0 0 0 8.122-.493 17.598 17.598 0 0 0 2.406-3.992c.08-.183.173-.358.279-.526.326-.604.594-1.237.802-1.891a.914.914 0 0 0-.28-.876.75.75 0 0 0-.592-.175.894.894 0 0 0-.558.35l-1.499 2.874a.57.57 0 0 1-.697.28.576.576 0 0 1-.419-.632c.105-.91.245-1.856.454-3.117.244-1.331.523-2.662.767-3.958l.209-.981a.91.91 0 0 0-.524-1.086.77.77 0 0 0-.801.21.63.63 0 0 1-.698.105.612.612 0 0 1-.314-.63v-.102c0-.105.035-.175.035-.28.026-.14.038-.28.035-.421a.79.79 0 0 0-1.57 0c-.07.42-.174.875-.244 1.296l-1.15 5.744a.63.63 0 0 1-.593.49.565.565 0 0 1-.558-.49c-.14-.7-.244-1.436-.384-2.136l-.209-1.226c-.174-.911-.314-1.857-.488-2.767a.857.857 0 0 0-.314-.595.79.79 0 0 0-.906-.07.918.918 0 0 0-.384.875c.035.21.07.455.105.665a.588.588 0 0 1-.348.63.639.639 0 0 1-.698-.14.973.973 0 0 0-.66-.315ZM11.98.56h4.464a.186.186 0 0 1 .141.28l-6.138 11.313a.128.128 0 0 0-.035.106v7.006a.166.166 0 0 1-.105.164.165.165 0 0 1-.069.01H6.332a.164.164 0 0 1-.174-.174v-7.006a.12.12 0 0 0-.018-.053.126.126 0 0 1-.017-.053L.022.877a.192.192 0 0 1 .174-.28h4.428A.192.192 0 0 1 4.798.7L8.11 7.46a.197.197 0 0 0 .349 0L11.806.665A.192.192 0 0 1 11.98.56Z"></path>
    <path
        d="M35.586 15.586a.092.092 0 0 0-.105-.104c-1.709.104-3.173-.036-3.173-1.156V9.842a.276.276 0 0 1 .279-.28h2.126a.112.112 0 0 0 .105-.105L34.33 5.78a.112.112 0 0 0-.105-.105h-1.674a.276.276 0 0 1-.279-.28V3.187a.112.112 0 0 0-.104-.105l-3.834-.63c-.035 0-.07.034-.07.104v2.908a.166.166 0 0 1-.106.164.165.165 0 0 1-.068.01l-5.648.035a.112.112 0 0 0-.105.106v.21c0 .07-.07.105-.105.07a7.018 7.018 0 0 0-4.114-.455 6.877 6.877 0 0 0-5.509 5.642 7.08 7.08 0 0 0 .14 2.976c.195-.04.393-.064.592-.07a3.281 3.281 0 0 1 3.278 3.292c.006.421-.077.84-.245 1.226a6.876 6.876 0 0 0 5.823.105c.07-.035.105 0 .105.07v.248a.075.075 0 0 0 .07.07h3.835a.075.075 0 0 0 .07-.07V9.666a.075.075 0 0 1 .07-.07h1.57a.276.276 0 0 1 .278.28v4.483c0 3.923 2.406 5.324 7.602 4.836.034 0 .07-.034.07-.104l-.281-3.505Zm-16.109-.14a2.942 2.942 0 1 1 2.93-2.942 2.933 2.933 0 0 1-2.93 2.942Z"></path>
    <path d="M13.41 19.404a1.926 1.926 0 1 0 .017-3.852 1.926 1.926 0 0 0-.017 3.852Z"></path>
</svg>
